<svg xmlns="http://www.w3.org/2000/svg" width="255" height="150" viewBox="0 0 255 150">
  <path fill="#308942" fill-rule="evenodd" d="M130.039864 77.9968952C128.694322 78.1442362 128.610798 78.2254145 128.607748 79.5833916 128.59719 84.0768222 128.585459 88.5702529 128.609155 93.0634489 128.619479 95.015013 128.741715 96.9661079 128.761423 98.9176721 128.773624 100.134408 129.437127 100.780315 130.498545 101.11676 130.979281 101.269497 131.483008 101.361937 131.982748 101.439596 133.902404 101.737797 135.822294 101.597964 137.681887 101.132245 141.091611 100.277761 143.435459 98.2070099 144.2517 94.6989807 144.849979 92.1273175 144.959077 89.525623 144.337805 86.91994 143.602742 83.8382143 141.930141 81.4523697 139.199171 79.8280996 136.844531 78.4276564 134.254333 77.9724948 131.286632 77.9304979 131.052951 77.9422289 130.543358 77.9417596 130.039864 77.9968952zM123.945156 79.4686627C123.944922 79.1563843 123.938352 78.841525 123.897763 78.5325313 123.770834 77.5670725 123.404124 77.190743 122.435381 76.9664468 122.082748 76.8845647 121.491038 77.0173592 121.515203 76.492281 121.537727 75.9951225 122.095886 76.0995282 122.46377 76.1044552 127.149823 76.1640485 131.83658 76.2053415 136.521694 76.3127972 138.325214 76.3543248 140.085563 76.7475469 141.775761 77.3969734 145.857435 78.9651694 148.379359 81.9356856 149.253081 86.174085 150.272737 91.1198618 149.139995 95.5694187 145.578003 99.24872 143.608843 101.283105 141.053837 102.243402 138.338822 102.834643 135.790151 103.389752 133.211215 103.287224 130.633452 103.218246 128.409025 103.158652 126.185068 103.085686 123.960641 103.022338 123.609181 103.01225 123.252325 103.061285 122.906966 103.014831 122.545417 102.96603 121.90863 102.962795 121.90863 102.578796 121.90863 102.24786 122.37743 102.24786 122.713639 102.185686 123.327404 102.072364 123.579385 101.655446 123.660328 101.136233 123.792419 100.289726 123.919583 99.4321924 123.928029 98.5779432 123.958999 95.4518743 123.940229 92.3253363 123.940229 89.1990328 123.947268 85.9554197 123.948441 82.7120412 123.945156 79.4686627zM109.97085 90.1880005C109.955365 88.6364625 109.770016 86.69311 109.10182 84.837036 107.855991 81.3761653 105.691861 78.7887826 101.993087 77.847255 97.8999166 76.8055448 93.1305735 78.1916762 91.6426173 83.5560141 90.487586 87.7200391 90.6621429 91.8481674 92.502732 95.787427 93.8745516 98.7234541 96.1283055 100.762766 99.3665224 101.49384 103.645746 102.460237 107.375959 100.904476 109.034953 96.4675886 109.742331 94.5758525 109.923457 92.5966032 109.97085 90.1880005M114.999213 89.2265302C114.937742 93.9419108 113.278983 97.9222289 109.446475 100.81579 106.513968 103.029658 103.120433 103.798272 99.5070594 103.653042 96.5623514 103.534794 93.7699114 102.818266 91.402367 100.978616 87.1815641 97.6986366 85.5124818 93.2659724 86.076976 88.0569526 86.6248123 82.9985584 89.1802868 79.1813008 93.8947289 77.0434489 97.0449635 75.615086 100.389463 75.4665719 103.775959 75.9590381 106.296475 76.3252789 108.618269 77.2053363 110.598926 78.8270255 113.390897 81.1133916 114.705704 84.1641475 114.993347 87.7031465 115.034406 88.2078128 114.999213 88.7185792 114.999213 89.2265302M64.2542049 89.4227424C64.2542049 92.6290511 64.2448201 95.8355944 64.2624166 99.041903 64.2657013 99.6636444 64.3665876 100.28562 64.4343926 100.905954 64.523548 101.72196 64.993256 102.163749 65.7998775 102.266277 65.9932039 102.290912 66.1966189 102.302643 66.3718796 102.376548 66.4971663 102.429338 66.6881465 102.630172 66.6675 102.670527 66.5905448 102.819041 66.4575156 102.988905 66.3085323 103.037706 66.0931517 103.108326 65.8458629 103.092372 65.612182 103.092607 63.1878597 103.094015 60.7633029 103.091199 58.3389807 103.088618 58.1435428 103.088384 57.9401277 103.11208 57.7557169 103.064922 57.629257 103.033014 57.4334412 103.002615 57.4334412 102.718323 57.4334412 102.43403 57.778475 102.361298 57.8530839 102.359187 59.0693509 102.321882 59.3039703 101.425167 59.3759984 100.502409 59.4942466 98.9832482 59.5658055 97.457049 59.5723749 95.9336653 59.5944291 90.9273566 59.5803519 85.921048 59.5742518 80.9149739 59.573548 80.2894786 59.5662748 79.6618717 59.5151277 79.0389572 59.399695 77.6345255 59.1038399 77.3330396 57.7214625 76.9933107 57.4699505 76.9318405 57.0286314 76.8928936 57.0286314 76.5580918 57.0286314 76.2232899 57.5553519 76.2221168 57.8176564 76.2232899 61.4922654 76.2399479 65.1668743 76.2627059 68.8403102 76.3450574 69.6474009 76.363123 70.4622341 76.5698227 71.2512591 76.7746455 74.8580631 77.7112461 76.4056126 81.0430761 75.6768848 84.4375495 75.2304041 86.5172158 73.961817 88.0851773 72.4902842 89.5248019 72.1029275 89.9037122 71.4520933 90.2610375 71.4115042 90.6760792 71.3723227 91.0800938 71.9354093 91.5655214 72.2763113 91.9805631 74.3843665 94.5465954 76.4823332 97.1217779 78.6302737 99.6542596 79.6252946 100.827357 80.8077763 101.797977 82.3475834 102.196361 82.7971142 102.312732 83.276207 102.313905 83.7273801 102.426288 83.9101486 102.471569 84.1368408 102.444899 84.1368408 102.718323 84.1368408 102.991746 83.8630212 103.201236 83.6415405 103.201236 83.4200598 103.201236 83.4587409 103.201513 83.3416658 103.201236 81.9731309 103.196074 80.6045959 103.182466 79.236061 103.184343 77.269012 103.187393 75.6522497 102.388983 74.4005553 100.926366 73.2335584 99.5627581 72.1404666 98.1318144 71.0715407 96.6886705 69.7227138 94.868024 68.4271455 93.0077268 67.1177346 91.1582221 66.6569421 90.5076225 66.7111392 90.3436236 67.4609828 90.3419812 69.1795699 90.3379927 70.2529536 89.408196 70.8798566 87.9383055 71.8439077 85.6779823 71.8903624 83.3503233 70.8871298 81.1026694 69.7069943 78.4594473 67.259914 77.7232117 64.6392153 78.1042336 64.0514937 78.1894004 64.1530839 78.5929458 64.1535532 78.9798332 64.1566032 82.1087174 64.1556648 85.2378363 64.1558994 88.3667205L64.1558994 89.4227424C64.2214364 87.2852033 64.2542049 87.2852033 64.2542049 89.4227424zM214.028916 94.3259124C212.552221 90.4889468 211.254541 86.6876434 209.716142 82.7317258 208.21317 86.7427789 206.809442 90.4891814 205.371694 94.3259124L214.028916 94.3259124zM204.632446 96.2331335C203.855675 98.2973149 203.354984 99.7421794 203.130375 100.567727 202.791116 101.81379 202.966846 102.008055 204.235198 102.346142 204.347815 102.376173 204.48976 102.378519 204.564135 102.450078 204.66244 102.54463 204.770241 102.610658 204.76239 102.759072 204.754539 102.907486 204.624901 103.025834 204.532696 103.044369 204.306053 103.089885 204.068853 103.099739 203.835876 103.099739 201.960094 103.100443 200.083843 103.095985 198.20806 103.092701 198.090751 103.092466 197.124664 103.137982 197.124664 102.759072 197.124664 102.380162 197.502325 102.342153 197.728029 102.302503 199.189004 102.045594 199.900605 101.002946 200.409494 99.7709593 201.273597 97.6783889 202.102039 95.5712722 202.942914 93.469317 205.14646 87.9609228 207.347424 82.4518248 209.552612 76.9441345 209.697372 76.5821168 209.834625 76.2104797 210.033347 75.878024 210.427977 75.2175704 210.840203 75.2248436 211.250083 75.9033629 211.470626 76.2679614 211.637205 76.668926 211.796981 77.065902 214.582148 83.9808394 217.354176 90.9014077 220.154359 97.8107143 220.534208 98.7473149 221.015412 99.648488 221.514447 100.529484 222.079411 101.52732 222.902925 102.211001 224.106053 102.31658 224.259964 102.329953 224.433347 102.338869 224.556992 102.415355 224.668201 102.484098 224.810235 102.543912 224.782696 102.759072 224.755156 102.974232 224.602977 103.00073 224.475579 103.051408 224.338326 103.106543 224.168462 103.086601 224.012675 103.08707 221.667888 103.093874 219.322868 103.099739 216.978081 103.101617 216.783347 103.101617 215.948486 103.04085 215.948486 102.759072 215.948486 102.477294 216.133217 102.43694 216.25475 102.395881 216.976908 102.151173 216.807982 101.696481 216.60621 101.178676 216.247242 100.257404 215.634019 98.6138165 214.766541 96.2479145 212.302111 96.2479145 210.587831 96.2479145 209.623702 96.2479145 208.685693 96.2497914 207.021942 96.2448644 204.632446 96.2331335zM8.2374635 94.3165511L16.8742727 94.3165511C15.4606908 90.4718431 14.0780787 86.711598 12.5964572 82.6820099 11.085743 86.7144135 9.67708811 90.4739546 8.2374635 94.3165511zM8.11827685 96.2432456C7.71895464 96.2376147 7.44703076 96.3227815 7.30930918 96.7314885 6.87338634 98.0242414 6.36918926 99.2963478 5.99309437 100.605993 5.6559463 101.780498 5.87203076 102.060633 7.01791189 102.348746 7.16759906 102.386285 7.33112878 102.400597 7.46134254 102.473329 7.54979406 102.522599 7.6422341 102.657271 7.63965328 102.751118 7.63730709 102.841447 7.52938217 102.983861 7.44280761 103.00615 7.21898071 103.063866 6.98131126 103.089205 6.74927268 103.089909 4.79536236 103.095774 2.84121741 103.093897.887307091 103.091316.693042231 103.091082.487750261 103.104455.308266423 103.047208.180868092 103.006619-.0159775808 102.832531.000915015641 102.761676.0377502607 102.607766.179929614 102.373147.298881648 102.360712 2.22346455 102.157766 2.92638425 100.707349 3.53334463 99.1905344 6.50573775 91.7636575 9.45959593 84.3292727 12.4272967 76.9002842 12.6541736 76.3327398 12.7874374 75.4965563 13.4518796 75.4573749 14.2566241 75.4097471 14.3382716 76.3264051 14.5731257 76.9052112 17.2426251 83.4862852 19.8790433 90.0809672 22.552062 96.6606335 23.0647054 97.9231204 23.6662696 99.1525261 24.2854301 100.367385 24.8466397 101.468454 25.7044082 102.222052 27.0105344 102.321061 27.1637409 102.332792 27.33994 102.353204 27.4565459 102.437198 27.5586053 102.511103 27.6280527 102.676979 27.6402529 102.8086 27.646353 102.875232 27.5025313 103.005915 27.411499 103.021635 27.1440328 103.068793 26.8692935 103.089674 26.5973697 103.090613 24.3698931 103.098824 22.142182 103.100701 19.9147054 103.103047 19.7584489 103.103047 19.7936418 103.078412 19.4487513 103.078412 19.1038608 103.078412 18.8549296 103.047208 18.8549296 102.797573 18.8549296 102.547938 19.1038608 102.435555 19.2760714 102.345461 19.7396794 102.10263 19.7105865 101.783548 19.5496376 101.365691 18.9741163 99.8723384 18.4011757 98.377109 17.8707013 96.8673332 17.6937982 96.3633707 17.405451 96.2369108 16.9111079 96.2458264 15.426671 96.2713999 13.941061 96.2549765 12.4561548 96.2549765 11.0101955 96.250988 9.56400156 96.2631882 8.11827685 96.2432456zM182.56378 89.3228415C182.56378 85.9992231 182.573634 82.6758394 182.55768 79.3524557 182.552987 78.3895777 182.518264 78.3670542 181.591986 78.3945047 180.029656 78.4409593 178.466387 78.492341 176.907576 78.5997967 176.372878 78.6366319 175.833723 78.8027424 175.326241 78.9902033 174.576397 79.2668196 174.083931 79.7867362 174.060938 80.6466163 174.055542 80.839708 174.047565 81.0459385 173.976006 81.2195568 173.926736 81.339682 173.768837 81.4842075 173.653874 81.4886653 173.540083 81.4933577 173.369515 81.3603285 173.31391 81.2446611 173.233436 81.076439 173.209739 80.8702086 173.204343 80.6785245 173.168681 79.3888217 173.127153 78.0986496 173.122518 76.8084776 173.120115 76.0823306 173.248921 76.020391 173.95536 76.0795151 175.23732 76.1867362 176.521861 76.3279771 177.806403 76.3368926 182.537503 76.3692701 187.269307 76.371147 192.000407 76.3434619 193.284948 76.3359541 194.569958 76.2003441 195.852153 76.0935923 196.587216 76.0325912 196.706403 76.0731804 196.703681 76.7932273 196.697722 78.1615276 196.647513 79.5295933 196.606689 80.8974244 196.602231 81.0475808 196.57525 81.2221376 196.493368 81.339682 196.336408 81.5656204 196.0978 81.6353024 195.942951 81.3539937 195.834791 81.1571481 195.786694 80.9068092 195.779891 80.6780553 195.750328 79.7050886 195.167299 79.1396559 194.322435 78.9177059 193.424077 78.6816788 192.486069 78.5549844 191.557445 78.4853024 190.389275 78.3970855 189.212424 78.4353285 188.041204 78.3780813 187.496184 78.3511001 187.243498 78.5165068 187.257576 79.0887435 187.27353 79.7527164 187.228717 80.4178624 187.228952 81.0825391 187.231767 86.7141084 187.226371 92.3456778 187.255933 97.9770125 187.261095 98.9891606 187.383566 100.004593 187.512372 101.010876 187.602701 101.717315 187.933514 102.272659 188.761251 102.325683 188.912815 102.335302 189.366569 102.365803 189.366569 102.733452 189.366569 103.1011 188.63573 103.1011 188.402518 103.101569 186.095506 103.103916 183.788728 103.102977 181.481715 103.102977 181.364406 103.102977 180.466517 103.102977 180.466517 102.769348 180.466517 102.435719 180.842377 102.376595 181.050719 102.351491 181.991309 102.239812 182.305229 101.59719 182.356376 100.806757 182.472278 99.0142649 182.561668 97.2182534 182.597096 95.4222419 182.636981 93.3899687 182.606246 91.3560532 182.606246 89.3228415L182.56378 89.3228415zM46.2884593 76.2819213C47.1807169 76.2622132 48.0797784 76.1671924 48.9570203 76.0048358 49.504622 75.9034802 49.5865042 76.1132299 49.5466189 76.5407065 49.4344708 77.7438347 49.3321767 78.9483707 49.1820203 80.1470412 49.1543352 80.3668796 48.9199505 80.5609098 48.7810558 80.7664364 48.6215146 80.5824948 48.3843144 80.4238921 48.3146324 80.2103884 47.8573592 78.8073644 47.4409098 78.4216502 46.0120777 78.3575991 44.2941945 78.2806439 42.5734958 78.2752477 40.8549088 78.2163582 40.3171611 78.1978233 40.0801955 78.3625261 40.0848879 78.9432091 40.1064729 81.6795751 40.1090537 84.4164103 40.0848879 87.1527763 40.0799609 87.7074166 40.3331152 87.8118222 40.7920308 87.8054875 42.5899192 87.7813217 44.3882769 87.7855448 46.1854614 87.7437826 46.8956543 87.7271246 47.5877815 87.5945647 48.0556126 86.9472497 48.1267023 86.8489442 48.3491215 86.7630735 48.4425 86.8046011 48.5440902 86.8496481 48.640988 87.0556439 48.6299609 87.1818691 48.503501 88.6212591 48.3681257 90.0601799 48.1991997 91.4951121 48.1776147 91.6792883 47.9514416 91.8395334 47.8202894 92.0108055 47.6853832 91.847745 47.4660141 91.7015772 47.4296481 91.5190433 47.1783707 90.259841 46.3191945 89.7769943 45.1547784 89.7328858 43.6710454 89.6768118 42.1849661 89.6861966 40.7005292 89.6500652 40.2493561 89.6390381 40.0855918 89.8135949 40.0926303 90.2664103 40.1437774 93.5097888 40.1756856 96.753402 40.2226095 99.9967805 40.2263634 100.268235 40.3028493 100.537344 40.3342883 100.808798 40.4325938 101.65812 40.8938556 102.153637 41.7445855 102.284789 41.9745125 102.320451 42.2084281 102.35799 42.4256856 102.436118 42.5139025 102.467792 42.6143196 102.609033 42.6150235 102.701238 42.6154927 102.793913 42.5174218 102.941019 42.4306126 102.970112 42.2138243 103.043313 41.9789703 103.098214 41.7509202 103.098684 39.2104614 103.105253 36.6700026 103.100795 34.1295438 103.097276 33.9735219 103.097041 33.8050652 103.116984 33.6649974 103.065602 33.5383029 103.019148 33.3821411 102.945477 33.3821411 102.701238 33.3821411 102.456999 33.6293352 102.387552 33.6661705 102.386379 34.9896585 102.350952 35.2080892 101.379158 35.3157795 100.373814 35.4115042 99.4822602 35.4551434 98.5810871 35.457255 97.6841371 35.470159 91.82006 35.4661705 85.9557482 35.4654666 80.0914364 35.4654666 79.7397419 35.4574896 79.3873436 35.4349661 79.036353 35.3507377 77.7149765 35.0096011 77.3065042 33.754622 77.0179223 33.4364781 76.9447211 32.9935167 77.0277864 32.9935167 76.5573644 32.9935167 76.2150547 33.5549609 76.2335897 33.8602007 76.2300704 36.1655709 76.2023853 44.4523279 76.3222758 46.2884593 76.2819213zM165.271932 76.2219519C166.430756 76.2219519 166.487701 76.4204102 166.487701 76.6091309 166.487701 76.7978516 166.21909 76.911499 166.056264 76.9621767 164.050034 77.5869682 163.977302 77.6191111 163.970263 79.6748462 163.948209 85.8852216 163.952901 92.0958316 163.97214 98.3066762 163.974721 99.2008107 164.083584 100.098465 164.196906 100.987672 164.287234 101.695988 164.605143 102.25579 165.428657 102.320545 165.54409 102.329695 165.976379 102.407589 165.969455 102.746848 165.962531 103.086108 165.349121 103.095942 165.154857 103.095942 162.811243 103.095942 160.46763 103.093616 158.124252 103.089862 157.929752 103.089627 157.235901 103.075753 157.235901 102.813293 157.235901 102.550834 157.379101 102.415331 157.489372 102.407589 158.865414 102.313272 159.067422 101.331624 159.128423 100.262229 159.210774 98.8200235 159.311426 97.3764103 159.315884 95.9332664 159.331603 90.6991423 159.313068 85.4647836 159.298991 80.2308942 159.297583 79.6854041 159.27506 79.1347523 159.199747 78.5953624 159.065545 77.6378806 158.655665 77.2258889 157.721645 77.0398358 157.492891 76.9943196 157.248183 77.0198931 157.025764 76.9593613 156.915023 76.9290954 156.765102 76.7777659 156.763929 76.6799296 156.762521 76.5553467 156.763929 76.2814331 157.489372 76.2814331 158.214815 76.2814331 164.061296 76.2219519 165.271932 76.2219519zM115.693358 21.198097C115.946981 21.123488 116.439447 21.0057091 116.912205 20.8342023 117.867576 20.4879041 117.991924 20.2148071 117.564682 19.2620177 117.08817 18.1994265 116.565907 17.1574818 116.049041 16.1138947 115.989213 15.9930657 115.835772 15.918926 115.72597 15.8232013 115.62696 15.9742961 115.459911 16.1164755 115.439499 16.2774244 115.25415 17.7407456 115.094844 19.2071168 114.926152 20.6723149 114.880636 21.0688217 115.039004 21.2651981 115.693358 21.198097M106.257435 20.2659541C105.840751 18.9950209 105.450109 17.7825078 105.037649 16.5775026 104.996825 16.4580813 104.822737 16.3841762 104.710355 16.28939 104.598441 16.4308655 104.440542 16.5566215 104.384937 16.717805 104.29719 16.9721324 104.288978 17.2529718 104.227977 17.5180918 103.91476 18.8816997 103.701726 20.2812044 103.243514 21.5948384 102.890881 22.6062826 103.334312 23.236001 103.869244 23.9067779 104.099875 24.1960636 104.323702 24.113243 104.487231 23.7840719 104.795521 23.1635036 105.127977 22.5551356 105.44049 21.9364442 105.710537 21.4026851 105.966741 20.8616528 106.257435 20.2659541M106.86768 61.8703076C106.986632 61.9751825 107.042471 62.0676225 107.099484 62.0683264 108.931861 62.0934307 110.764473 62.1171272 112.597086 62.1199445 112.924849 62.1206465 113.057409 61.9209854 112.995 61.5653024 112.619609 59.4241658 112.368097 57.2544056 111.8639 55.1449426 111.430323 53.331804 110.719661 51.5845933 110.117862 49.8129823 110.029411 49.5525547 109.865647 49.3179353 109.736606 49.0713504 109.546799 49.3463243 109.51184 49.5689781 109.520052 49.7899896 109.608738 52.1307873 109.662935 54.4741658 109.81755 56.8107404 109.880897 57.7686913 110.107774 58.7275808 110.363509 59.6578467 110.638014 60.6573253 110.50475 60.9332377 109.449432 60.9419187 108.481627 60.9501303 107.680167 61.3342023 106.86768 61.8703076M114.842393 34.1608186L114.592993 34.1099062C114.486006 34.3525026 114.362127 34.5897028 114.274614 34.8393379 113.410276 37.3021376 112.575501 39.7757299 111.679724 42.2270334 111.318644 43.2152503 111.294948 44.0873306 111.927482 44.9863921 113.082278 46.6277894 113.610407 48.4646246 113.598676 50.4877477 113.58976 52.0460897 113.717393 53.6058394 113.798806 55.1639468 113.815464 55.4823253 113.896408 55.7971846 113.964682 56.2187956 114.643436 54.8183525 115.270104 53.5856621 115.830141 52.3236444 115.951674 52.0500782 115.900527 51.6521637 115.81536 51.3429353 115.525605 50.2937174 115.07232 49.2775808 114.890959 48.212878 114.632878 46.6986444 114.714056 45.1926225 115.604906 43.8186913 115.813483 43.4970282 115.861814 43.0024505 115.824745 42.6021898 115.608191 40.2735923 115.34964 37.9487487 115.092028 35.6241397 115.037596 35.133316 114.927091 34.6483577 114.842393 34.1608186M105.425005 61.8984619C104.908139 61.0442127 104.903212 60.8654327 105.658921 60.6514599 106.630245 60.3767205 107.171277 59.5729145 107.923936 59.0377477 108.119609 58.8986184 108.227065 58.4812304 108.197737 58.2107143 108.121955 57.5169447 107.979776 56.8252868 107.805219 56.1479406 107.113326 53.4648332 106.393983 50.788999 105.695287 48.1075339 105.457383 47.1946298 105.414917 46.2786757 105.492106 45.3237748 105.552873 44.5718196 105.412805 43.7642596 105.187805 43.0352972 104.219531 39.9003128 103.245156 36.7721324 102.738379 33.5177268 102.495078 31.9551616 102.39818 30.3977581 102.864135 28.8748436 103.133478 27.9945516 102.907304 27.3305787 102.415073 26.6037278 101.806001 25.7044317 101.310719 24.7237226 100.812153 23.7547445 100.405558 22.964781 100.397112 22.1400938 100.571199 21.2506517 101.050996 18.7993483 101.486215 16.3370177 101.845886 13.865537 102.071356 12.3147028 102.819322 11.2997393 104.274901 10.7185871 104.952482 10.4480709 105.592993 10.0426486 106.176726 9.60086027 106.392341 9.43779979 106.54109 8.95847237 106.471408 8.68701773 106.214969 7.68613139 105.932722 6.70471846 105.21244 5.86947341 104.59633 5.15482273 104.256131 4.275 104.763613 3.28021376 105.022164 2.77296663 105.132435 2.19087591 105.380428 1.67705944 105.707956.999009385 106.355271.695646507 107.028629.451407716 109.101257-.300078206 111.029593.974374348 111.238405 3.15070386 111.366038 4.48240355 111.036632 5.66277372 110.428733 6.80818561 110.102612 7.42265381 110.151178 7.77411366 110.793332 8.01976017 111.952351 8.46319082 113.133191 8.93571429 114.347112 9.12599062 115.75694 9.34676747 116.77988 9.92275808 117.337101 11.2321689 118.054333 12.9179093 118.749041 14.6137383 119.435302 16.3126173 119.771277 17.1441084 120.074406 17.9892075 120.374484 18.8343066 120.49109 19.1625391 120.595261 19.5029718 120.642654 19.8464546 120.912701 21.803415 120.725474 22.0952815 118.842419 22.7501043 118.441689 22.8894682 118.040959 23.0281283 117.536997 23.2029197 117.868514 23.6611314 118.14208 24.0672576 118.444035 24.4510949 119.458295 25.7403285 119.88976 27.1989572 119.746877 28.8297967 119.682122 29.5690824 119.590855 30.3064911 119.549327 31.0469499 119.474953 32.3706726 119.413248 33.6953337 119.377117 35.020464 119.356236 35.7890772 119.666168 36.4309958 120.129072 37.0595412 121.007252 38.251877 121.854698 39.4756517 122.603603 40.7512774 123.498676 42.275365 123.765438 43.9482013 123.55475 45.7219239 123.241533 48.3562304 123.081992 51.0114181 122.696277 53.6339937 122.534155 54.7355318 122.539082 55.6871481 123.126335 56.6415798 123.561319 57.3489572 123.540438 58.1696559 123.28353 58.9044838 122.917054 59.9525287 123.551934 60.8900678 123.476856 61.8979927 123.463248 62.0772419 123.801335 62.310219 124.011319 62.4746872 125.460094 63.607195 127.119791 64.2453597 128.924015 64.5334724 129.193827 64.5766423 129.476543 64.5714807 129.73439 64.6503128 130.251726 64.8086809 130.588405 65.3199166 130.544062 65.8081595 130.49878 66.3067258 130.099458 66.7567258 129.574145 66.8454119 129.307383 66.8904588 129.028655 66.8686392 128.755323 66.8686392 118.163431 66.8709854 107.571538 66.8726277 96.9796455 66.8742701 96.8623358 66.8742701 96.7447914 66.8789625 96.627951 66.8728624 95.7636131 66.8289885 95.2664546 66.4216893 95.2571866 65.7527894 95.2488582 65.1352711 95.6948697 64.7385297 96.4700521 64.575 97.3831908 64.3821429 98.3235454 64.2312826 99.1808446 63.8859228 100.111111 63.5112357 101.005245 62.998123 101.827351 62.4204901 102.339291 62.0608186 102.805714 61.8475495 103.42769 61.8895464 104.044739 61.931074 104.666481 61.8984619 105.425005 61.8984619" transform="translate(15 23)"/>
</svg>
